<?xml version="1.0" encoding="UTF-8"?>
<svg id="Layer_1" xmlns="http://www.w3.org/2000/svg" viewBox="0 0 213.27 213.27">
  <defs>
    <style>
      .cls-1 {
        fill: #ef4136;
        opacity: .8;
      }

      .cls-2 {
        stroke: #58595b;
        stroke-miterlimit: 10;
        stroke-width: .25px;
      }

      .cls-2, .cls-3 {
        fill: #414042;
      }
    </style>
  </defs>
  <circle class="cls-1" cx="106.63" cy="106.63" r="106.63"/>
  <path class="cls-3" d="M159.37,149.05c-16.9-2.56-38.06-4.26-62.29-2.7-18.5,1.19-34.83,4.02-48.54,7.28-2.16-3.06-4.31-6.11-6.47-9.17,8.47-2.63,17.5-5.03,27.05-7.06,40.05-8.5,76.13-7.67,104.81-4-4.85,5.21-9.71,10.43-14.56,15.64Z"/>
  <path class="cls-3" d="M180.67,123.7c-8.69-2.13-20.28-4.09-33.98-4.04-13.31.04-24.59,1.96-33.12,4.04,4.74-12.06,9.85-29.09,11.31-49.91,2.28-32.45-5.44-58.45-11.31-73.56,9.65,1.69,17.31,4.81,23.34,8.21,50.37,28.42,44.27,109.47,43.75,115.26Z"/>
  <path class="cls-3" d="M94.65,123.97c-6.07-.51-13.84-.53-22.65,1.08-4.59.84-8.69,1.98-12.26,3.2,7.39-8.39,15.59-19.12,23.18-32.39,11.87-20.75,17.96-40.21,21.24-54.81,2.66,12.13,5.21,31.77.2,54.81-2.44,11.24-6.11,20.67-9.71,28.11Z"/>
  <path class="cls-2" d="M196.87,163.47c-17.03-4.48-39.87-8.54-66.83-7.93-45.15,1.01-80.27,14.6-100.75,24.52,1.04,1.05,2.07,2.09,3.11,3.14,16.35-7.39,42.43-16.81,75.73-19.31,35.56-2.66,64.96,2.96,82.61,8.31,1.04-1.33,2.09-2.74,3.15-4.25,1.08-1.53,2.07-3.02,2.98-4.47Z"/>
  <path class="cls-2" d="M187.69,175.92c-15.42-3.79-36.94-7.26-62.52-5.79-37.34,2.15-65.32,13.45-82.29,21.99,1.14.84,1.88,1.5,3.23,2.32,14.78-6.45,37.54-14.38,66.33-16.87,29.03-2.52,52.99,1.46,68.71,5.32,1.1-1,2.24-2.12,3.4-3.37,1.16-1.23,2.19-2.44,3.12-3.6Z"/>
  <path class="cls-2" d="M165.02,195.88c-11.67-2.74-29.78-4.4-49.74-3.14-22,1.39-39.61,6.92-51.31,11.62-1.87-.87-3.74-1.74-5.61-2.62,15.01-7.1,39.47-16.24,70.67-17.5,18.27-.74,33.99,1.43,46.12,4.09-1.53,1.29-3.19,2.61-4.97,3.93-1.77,1.32-3.5,2.52-5.17,3.61Z"/>
  <path class="cls-2" d="M146.03,205.75c-9.53-1.36-24.52-1.51-39.04.53-8.14,1.15-15.33,2.95-21.44,4.9-2.36-.56-4.72-1.12-7.07-1.67,7.66-3.14,17.02-6.22,27.91-8.28,20.58-3.89,38.29-2.57,50.58-.57-1.65.89-3.4,1.77-5.27,2.64-1.96.91-3.85,1.73-5.67,2.45Z"/>
</svg>